<svg width="20" height="18" viewBox="0 0 20 18" fill="none" xmlns="http://www.w3.org/2000/svg">
<path fill-rule="evenodd" clip-rule="evenodd" d="M20 4.125C20 3.03098 19.5654 1.98177 18.7918 1.20818C18.0182 0.434597 16.969 0 15.875 0H11.375C10.281 0 9.23177 0.434597 8.45819 1.20818C7.6846 1.98177 7.25 3.03098 7.25 4.125V4.875C7.25 5.17337 7.36853 5.45952 7.57951 5.6705C7.79048 5.88147 8.07663 6 8.375 6C8.67337 6 8.95952 5.88147 9.1705 5.6705C9.38148 5.45952 9.5 5.17337 9.5 4.875V4.125C9.5 3.09 10.34 2.25 11.375 2.25H15.875C16.91 2.25 17.75 3.09 17.75 4.125V13.875C17.75 14.91 16.91 15.75 15.875 15.75H11.375C10.34 15.75 9.5 14.91 9.5 13.875V13.125C9.5 12.8266 9.38148 12.5405 9.1705 12.3295C8.95952 12.1185 8.67337 12 8.375 12C8.07663 12 7.79048 12.1185 7.57951 12.3295C7.36853 12.5405 7.25 12.8266 7.25 13.125V13.875C7.25 14.969 7.6846 16.0182 8.45819 16.7918C9.23177 17.5654 10.281 18 11.375 18H15.875C16.969 18 18.0182 17.5654 18.7918 16.7918C19.5654 16.0182 20 14.969 20 13.875V4.125ZM5.795 4.83C5.58406 4.61932 5.29813 4.50099 5 4.50099C4.70188 4.50099 4.41594 4.61932 4.205 4.83L0.830002 8.205C0.619326 8.41594 0.500992 8.70187 0.500992 9C0.500992 9.29813 0.619326 9.58406 0.830002 9.795L4.205 13.17C4.308 13.2805 4.4322 13.3692 4.57019 13.4307C4.70819 13.4922 4.85716 13.5252 5.00822 13.5279C5.15927 13.5306 5.30932 13.5028 5.4494 13.4462C5.58948 13.3896 5.71673 13.3054 5.82356 13.1986C5.93039 13.0917 6.0146 12.9645 6.07119 12.8244C6.12777 12.6843 6.15555 12.5343 6.15289 12.3832C6.15022 12.2322 6.11716 12.0832 6.05567 11.9452C5.99419 11.8072 5.90553 11.683 5.795 11.58L4.34 10.125H15.125C15.4234 10.125 15.7095 10.0065 15.9205 9.79549C16.1315 9.58452 16.25 9.29837 16.25 9C16.25 8.70163 16.1315 8.41548 15.9205 8.2045C15.7095 7.99353 15.4234 7.875 15.125 7.875H4.34L5.795 6.42C6.00568 6.20906 6.12401 5.92313 6.12401 5.625C6.12401 5.32687 6.00568 5.04094 5.795 4.83Z" fill="#020617"/>
</svg>
